<?xml version="1.0" encoding="UTF-8" standalone="no"?>
<!DOCTYPE svg PUBLIC "-//W3C//DTD SVG 1.1//EN" "http://www.w3.org/Graphics/SVG/1.1/DTD/svg11.dtd">
<svg width="100%" height="100%" viewBox="0 0 268 271" version="1.1" xmlns="http://www.w3.org/2000/svg" xmlns:xlink="http://www.w3.org/1999/xlink" xml:space="preserve" xmlns:serif="http://www.serif.com/" style="fill-rule:evenodd;clip-rule:evenodd;stroke-linejoin:round;stroke-miterlimit:2;">
    <g transform="matrix(8.33333,0,0,8.33333,236.333,153.987)">
        <path d="M0,-1.449C-0.184,2.088 -5.165,4.922 -11.287,4.922C-17.524,4.922 -22.582,1.979 -22.582,-1.651C-22.582,-4.973 -18.348,-7.718 -12.85,-8.16C-19.339,-7.962 -24.5,-4.711 -24.5,-0.73C-24.5,3.38 -19.002,6.711 -12.221,6.711C-5.439,6.711 0.058,3.38 0.058,-0.73C0.058,-0.972 0.038,-1.212 0,-1.449" style="fill:rgb(35,31,32);fill-rule:nonzero;"/>
    </g>
    <g transform="matrix(8.33333,0,0,8.33333,66.6625,244.141)">
        <path d="M0,-6.746C-0.883,-5.823 -1.309,-4.866 -1.138,-3.961C-0.619,-1.211 5.206,0 11.874,-1.257C13.874,-1.634 15.72,-2.191 17.313,-2.859C16.478,-2.621 15.602,-2.411 14.692,-2.24C8.025,-0.983 2.199,-2.194 1.681,-4.944C1.658,-5.063 1.646,-5.184 1.644,-5.305C0.958,-5.721 0.399,-6.205 0,-6.746" style="fill:rgb(35,31,32);fill-rule:nonzero;"/>
    </g>
    <g transform="matrix(8.33333,0,0,8.33333,177.633,267.119)">
        <path d="M0,-2.645C-3.652,-1.006 -7.274,-0.604 -8.533,-1.625C-9.346,-1.541 -10.122,-1.775 -10.732,-2.228C-11.116,-1.576 -11.197,-0.982 -10.902,-0.519C-10.013,0.873 -6.066,0.554 -2.088,-1.231C-0.565,-1.915 0.74,-2.714 1.724,-3.518C1.188,-3.213 0.611,-2.919 0,-2.645" style="fill:rgb(35,31,32);fill-rule:nonzero;"/>
    </g>
    <g transform="matrix(8.33333,0,0,8.33333,162.342,57.2367)">
        <path d="M0,12.037C-6.413,12.037 -11.611,8.752 -11.611,4.699C-11.611,1.005 -7.292,-2.05 -1.672,-2.563C-2.175,-2.593 -2.686,-2.609 -3.202,-2.609C-11.285,-2.609 -17.838,1.253 -17.838,6.018C-17.838,10.784 -11.285,14.646 -3.202,14.646C4.881,14.646 11.434,10.784 11.434,6.018C11.434,6.005 11.432,5.992 11.431,5.979C10.473,9.421 5.722,12.037 0,12.037" style="fill:rgb(35,31,32);fill-rule:nonzero;"/>
    </g>
    <g transform="matrix(8.33333,0,0,8.33333,222.758,127.908)">
        <path d="M0,-13.136C1.818,-11.887 2.933,-10.211 2.933,-8.366C2.933,-4.51 -1.932,-1.383 -7.932,-1.383C-13.932,-1.383 -18.796,-4.51 -18.796,-8.366C-18.796,-11.967 -14.556,-14.93 -9.109,-15.308C-9.62,-15.334 -10.138,-15.349 -10.661,-15.349C-19.537,-15.349 -26.731,-11.418 -26.731,-6.568C-26.731,-1.719 -19.537,2.213 -10.661,2.213C-1.786,2.213 5.408,-1.719 5.408,-6.568C5.408,-9.182 3.316,-11.527 0,-13.136" style="fill:rgb(35,31,32);fill-rule:nonzero;"/>
    </g>
</svg>
