<?xml version="1.0" encoding="UTF-8" standalone="no"?>
<!DOCTYPE svg PUBLIC "-//W3C//DTD SVG 1.1//EN" "http://www.w3.org/Graphics/SVG/1.1/DTD/svg11.dtd">
<svg width="100%" height="100%" viewBox="0 0 296 300" version="1.1" xmlns="http://www.w3.org/2000/svg" xmlns:xlink="http://www.w3.org/1999/xlink" xml:space="preserve" xmlns:serif="http://www.serif.com/" style="fill-rule:evenodd;clip-rule:evenodd;stroke-linejoin:round;stroke-miterlimit:2;">
    <g transform="matrix(8.33333,0,0,8.33333,246.61,221.642)">
        <path d="M0,-17.224C2.173,-21.497 5.915,-26.597 5.915,-26.597C5.915,-26.597 1.306,-25.757 -4.554,-24.275C-3.586,-22.403 -3.321,-22.084 -3.462,-22.223C-3.639,-22.4 -3.52,-22.461 -4.713,-23.397C-4.945,-23.579 -5.263,-23.726 -5.548,-23.939C-7.695,-23.394 -9.893,-22.802 -11.907,-22.201C-10.439,-20.607 -9.771,-19.419 -10.582,-20.507C-10.995,-21.062 -11.757,-21.55 -12.663,-21.972C-15.146,-21.208 -17.288,-20.435 -18.603,-19.729C-18.885,-19.575 -19.176,-19.4 -19.467,-19.213C-17.558,-17.313 -16.559,-15.599 -17.484,-16.839C-18.005,-17.541 -19.089,-18.137 -20.313,-18.623C-21.91,-17.437 -23.516,-15.808 -24.936,-13.977C-22.804,-11.954 -21.638,-9.967 -22.613,-11.277C-23.155,-12.005 -24.301,-12.618 -25.583,-13.115C-26.58,-11.723 -27.455,-10.237 -28.135,-8.748C-25.744,-6.608 -24.356,-4.269 -25.396,-5.662C-25.972,-6.438 -27.233,-7.085 -28.618,-7.597C-29.388,-5.59 -29.761,-3.62 -29.521,-1.917C-28.904,1.902 -28.288,1.268 -28.076,2.743C-28.013,3.206 -28.129,3.832 -28.32,4.478C-24.015,-0.116 -17.812,-6.533 -15.303,-8.14C-11.693,-10.455 -23.423,-2.247 -27.035,6.953C-26.546,7.007 -25.998,7.141 -25.4,7.405C-23.108,8.415 -18.872,9.373 -16.788,9.343C-16.896,7.564 -17.198,5.745 -17.928,4.838C-19.131,3.344 -16.675,5.846 -15.188,9.17C-14.165,9.009 -12.782,8.694 -11.336,7.978C-11.288,5.724 -11.413,2.248 -12.521,0.873C-13.891,-0.829 -10.517,2.648 -9.229,6.621C-7.79,5.441 -6.457,3.727 -5.571,1.223C-5.517,-1.024 -5.617,-4.623 -6.751,-6.03C-7.859,-7.408 -5.854,-5.382 -4.369,-2.451C-3.71,-4.449 -3.184,-6.005 -2.771,-7.336C-2.872,-9.151 -3.174,-11.028 -3.919,-11.953C-4.879,-13.145 -3.504,-11.789 -2.155,-9.5C-1.849,-10.705 -1.64,-11.83 -1.502,-13.136C-1.404,-14.063 -0.937,-15.305 -0.278,-16.661C-0.461,-17.455 -0.717,-18.142 -1.084,-18.597C-1.883,-19.587 -1.071,-18.821 0,-17.224" style="fill:rgb(35,31,32);fill-rule:nonzero;"/>
    </g>
</svg>
