<?xml version="1.0" encoding="UTF-8" standalone="no"?>
<!DOCTYPE svg PUBLIC "-//W3C//DTD SVG 1.1//EN" "http://www.w3.org/Graphics/SVG/1.1/DTD/svg11.dtd">
<svg width="100%" height="100%" viewBox="0 0 212 341" version="1.1" xmlns="http://www.w3.org/2000/svg" xmlns:xlink="http://www.w3.org/1999/xlink" xml:space="preserve" xmlns:serif="http://www.serif.com/" style="fill-rule:evenodd;clip-rule:evenodd;stroke-linejoin:round;stroke-miterlimit:2;">
    <g transform="matrix(8.33333,0,0,8.33333,113.898,0)">
        <path d="M0,40.825C0,40.825 12.589,36.758 11.656,24.943C11.097,17.842 7.951,18.57 3.032,8.47C1.753,5.762 3.773,0 3.773,0C3.773,0 -3.638,3.441 -4.716,9.55C-5.524,8.267 -7.882,7.472 -7.882,7.472C-7.882,7.472 -6.603,10.099 -7.208,13.153C-7.847,16.269 -12.896,18.957 -13.589,24.943C-14.282,30.929 -10.308,34.106 -5.255,36.427C-5.255,36.427 -8.624,34.054 -3.235,26.714C1.029,33.479 1.548,35.284 1.55,36.162C1.555,37.729 2.089,38.321 0,40.825" style="fill:rgb(35,31,32);fill-rule:nonzero;"/>
    </g>
</svg>
